<mxfile host="app.diagrams.net" modified="2024-01-10T12:36:56.601Z" agent="Mozilla/5.0 (Windows NT 10.0; Win64; x64) AppleWebKit/537.36 (KHTML, like Gecko) Chrome/120.0.0.0 Safari/537.36" etag="t_LiN70ow8No6c_9AOYY" version="22.1.17" type="github">
  <diagram name="Page-1" id="GaLzv1HOwFtsZdGbMVZW">
    <mxGraphModel dx="1434" dy="780" grid="1" gridSize="10" guides="1" tooltips="1" connect="1" arrows="1" fold="1" page="1" pageScale="1" pageWidth="827" pageHeight="1169" math="0" shadow="0">
      <root>
        <mxCell id="0" />
        <mxCell id="1" parent="0" />
        <mxCell id="9dSxk1FIh0uDA3eXWPNg-7" value="Pool" style="swimlane;html=1;childLayout=stackLayout;resizeParent=1;resizeParentMax=0;horizontal=0;startSize=20;horizontalStack=0;whiteSpace=wrap;" vertex="1" parent="1">
          <mxGeometry width="800" height="440" as="geometry" />
        </mxCell>
        <mxCell id="9dSxk1FIh0uDA3eXWPNg-8" value="Lane 1" style="swimlane;html=1;startSize=20;horizontal=0;" vertex="1" parent="9dSxk1FIh0uDA3eXWPNg-7">
          <mxGeometry x="20" width="780" height="440" as="geometry" />
        </mxCell>
        <mxCell id="9dSxk1FIh0uDA3eXWPNg-11" value="" style="points=[[0.145,0.145,0],[0.5,0,0],[0.855,0.145,0],[1,0.5,0],[0.855,0.855,0],[0.5,1,0],[0.145,0.855,0],[0,0.5,0]];shape=mxgraph.bpmn.event;html=1;verticalLabelPosition=bottom;labelBackgroundColor=#ffffff;verticalAlign=top;align=center;perimeter=ellipsePerimeter;outlineConnect=0;aspect=fixed;outline=standard;symbol=general;" vertex="1" parent="9dSxk1FIh0uDA3eXWPNg-8">
          <mxGeometry x="60" y="195" width="50" height="50" as="geometry" />
        </mxCell>
        <mxCell id="9dSxk1FIh0uDA3eXWPNg-12" value="Envoyer &lt;br&gt;l&#39;appel d&#39;offre" style="points=[[0.145,0.145,0],[0.5,0,0],[0.855,0.145,0],[1,0.5,0],[0.855,0.855,0],[0.5,1,0],[0.145,0.855,0],[0,0.5,0]];shape=mxgraph.bpmn.event;html=1;verticalLabelPosition=bottom;labelBackgroundColor=#ffffff;verticalAlign=top;align=center;perimeter=ellipsePerimeter;outlineConnect=0;aspect=fixed;outline=throwing;symbol=message;" vertex="1" parent="9dSxk1FIh0uDA3eXWPNg-8">
          <mxGeometry x="170" y="195" width="50" height="50" as="geometry" />
        </mxCell>
        <mxCell id="9dSxk1FIh0uDA3eXWPNg-13" value="1 semaine" style="points=[[0.145,0.145,0],[0.5,0,0],[0.855,0.145,0],[1,0.5,0],[0.855,0.855,0],[0.5,1,0],[0.145,0.855,0],[0,0.5,0]];shape=mxgraph.bpmn.event;html=1;verticalLabelPosition=bottom;labelBackgroundColor=#ffffff;verticalAlign=top;align=center;perimeter=ellipsePerimeter;outlineConnect=0;aspect=fixed;outline=catching;symbol=timer;" vertex="1" parent="9dSxk1FIh0uDA3eXWPNg-8">
          <mxGeometry x="300" y="195" width="50" height="50" as="geometry" />
        </mxCell>
        <mxCell id="9dSxk1FIh0uDA3eXWPNg-14" value="" style="points=[[0.25,0.25,0],[0.5,0,0],[0.75,0.25,0],[1,0.5,0],[0.75,0.75,0],[0.5,1,0],[0.25,0.75,0],[0,0.5,0]];shape=mxgraph.bpmn.gateway2;html=1;verticalLabelPosition=bottom;labelBackgroundColor=#ffffff;verticalAlign=top;align=center;perimeter=rhombusPerimeter;outlineConnect=0;outline=none;symbol=none;gwType=exclusive;" vertex="1" parent="9dSxk1FIh0uDA3eXWPNg-8">
          <mxGeometry x="430" y="195" width="50" height="50" as="geometry" />
        </mxCell>
        <mxCell id="9dSxk1FIh0uDA3eXWPNg-15" value="Tout les fournisseurs ont-rÃ©pondu" style="text;html=1;strokeColor=none;fillColor=none;align=center;verticalAlign=middle;whiteSpace=wrap;rounded=0;" vertex="1" parent="9dSxk1FIh0uDA3eXWPNg-8">
          <mxGeometry x="480" y="187.5" width="100" height="65" as="geometry" />
        </mxCell>
        <mxCell id="9dSxk1FIh0uDA3eXWPNg-16" value="" style="endArrow=classic;html=1;rounded=0;exitX=1;exitY=0.5;exitDx=0;exitDy=0;exitPerimeter=0;entryX=0;entryY=0.5;entryDx=0;entryDy=0;entryPerimeter=0;" edge="1" parent="9dSxk1FIh0uDA3eXWPNg-8" source="9dSxk1FIh0uDA3eXWPNg-11" target="9dSxk1FIh0uDA3eXWPNg-12">
          <mxGeometry width="50" height="50" relative="1" as="geometry">
            <mxPoint x="260" y="340" as="sourcePoint" />
            <mxPoint x="310" y="290" as="targetPoint" />
          </mxGeometry>
        </mxCell>
        <mxCell id="9dSxk1FIh0uDA3eXWPNg-17" value="" style="endArrow=classic;html=1;rounded=0;exitX=1;exitY=0.5;exitDx=0;exitDy=0;exitPerimeter=0;entryX=0;entryY=0.5;entryDx=0;entryDy=0;entryPerimeter=0;" edge="1" parent="9dSxk1FIh0uDA3eXWPNg-8" source="9dSxk1FIh0uDA3eXWPNg-12" target="9dSxk1FIh0uDA3eXWPNg-13">
          <mxGeometry width="50" height="50" relative="1" as="geometry">
            <mxPoint x="280" y="160" as="sourcePoint" />
            <mxPoint x="330" y="110" as="targetPoint" />
          </mxGeometry>
        </mxCell>
        <mxCell id="9dSxk1FIh0uDA3eXWPNg-18" value="" style="endArrow=classic;html=1;rounded=0;exitX=1;exitY=0.5;exitDx=0;exitDy=0;exitPerimeter=0;entryX=0;entryY=0.5;entryDx=0;entryDy=0;entryPerimeter=0;" edge="1" parent="9dSxk1FIh0uDA3eXWPNg-8" source="9dSxk1FIh0uDA3eXWPNg-13" target="9dSxk1FIh0uDA3eXWPNg-14">
          <mxGeometry width="50" height="50" relative="1" as="geometry">
            <mxPoint x="450" y="350" as="sourcePoint" />
            <mxPoint x="500" y="300" as="targetPoint" />
          </mxGeometry>
        </mxCell>
        <mxCell id="9dSxk1FIh0uDA3eXWPNg-20" value="" style="points=[[0.25,0,0],[0.5,0,0],[0.75,0,0],[1,0.25,0],[1,0.5,0],[1,0.75,0],[0.75,1,0],[0.5,1,0],[0.25,1,0],[0,0.75,0],[0,0.5,0],[0,0.25,0]];shape=mxgraph.bpmn.task;whiteSpace=wrap;rectStyle=rounded;size=10;html=1;container=1;expand=0;collapsible=0;taskMarker=abstract;" vertex="1" parent="9dSxk1FIh0uDA3eXWPNg-8">
          <mxGeometry x="690" y="91" width="90" height="60" as="geometry" />
        </mxCell>
        <mxCell id="9dSxk1FIh0uDA3eXWPNg-21" value="" style="endArrow=classic;html=1;rounded=0;exitX=0.5;exitY=0;exitDx=0;exitDy=0;exitPerimeter=0;entryX=0;entryY=0.5;entryDx=0;entryDy=0;entryPerimeter=0;" edge="1" parent="9dSxk1FIh0uDA3eXWPNg-8" source="9dSxk1FIh0uDA3eXWPNg-14" target="9dSxk1FIh0uDA3eXWPNg-20">
          <mxGeometry width="50" height="50" relative="1" as="geometry">
            <mxPoint x="390" y="110" as="sourcePoint" />
            <mxPoint x="440" y="60" as="targetPoint" />
            <Array as="points">
              <mxPoint x="455" y="120" />
            </Array>
          </mxGeometry>
        </mxCell>
        <mxCell id="9dSxk1FIh0uDA3eXWPNg-29" value="Oui" style="edgeLabel;html=1;align=center;verticalAlign=middle;resizable=0;points=[];" vertex="1" connectable="0" parent="9dSxk1FIh0uDA3eXWPNg-21">
          <mxGeometry x="-0.8581" y="-1" relative="1" as="geometry">
            <mxPoint as="offset" />
          </mxGeometry>
        </mxCell>
        <mxCell id="9dSxk1FIh0uDA3eXWPNg-25" value="On les retire de la liste des fournisseurs" style="points=[[0.25,0,0],[0.5,0,0],[0.75,0,0],[1,0.25,0],[1,0.5,0],[1,0.75,0],[0.75,1,0],[0.5,1,0],[0.25,1,0],[0,0.75,0],[0,0.5,0],[0,0.25,0]];shape=mxgraph.bpmn.task;whiteSpace=wrap;rectStyle=rounded;size=10;html=1;container=1;expand=0;collapsible=0;taskMarker=abstract;" vertex="1" parent="9dSxk1FIh0uDA3eXWPNg-8">
          <mxGeometry x="501" y="290" width="119" height="60" as="geometry" />
        </mxCell>
        <mxCell id="9dSxk1FIh0uDA3eXWPNg-26" value="" style="endArrow=classic;html=1;rounded=0;exitX=0.5;exitY=1;exitDx=0;exitDy=0;exitPerimeter=0;entryX=0;entryY=0.5;entryDx=0;entryDy=0;entryPerimeter=0;" edge="1" parent="9dSxk1FIh0uDA3eXWPNg-8" source="9dSxk1FIh0uDA3eXWPNg-14" target="9dSxk1FIh0uDA3eXWPNg-25">
          <mxGeometry width="50" height="50" relative="1" as="geometry">
            <mxPoint x="410" y="390" as="sourcePoint" />
            <mxPoint x="460" y="340" as="targetPoint" />
            <Array as="points">
              <mxPoint x="455" y="320" />
            </Array>
          </mxGeometry>
        </mxCell>
        <mxCell id="9dSxk1FIh0uDA3eXWPNg-27" value="Non" style="edgeLabel;html=1;align=center;verticalAlign=middle;resizable=0;points=[];" vertex="1" connectable="0" parent="9dSxk1FIh0uDA3eXWPNg-26">
          <mxGeometry x="-0.7521" y="1" relative="1" as="geometry">
            <mxPoint as="offset" />
          </mxGeometry>
        </mxCell>
        <mxCell id="9dSxk1FIh0uDA3eXWPNg-30" value="" style="endArrow=classic;html=1;rounded=0;exitX=1;exitY=0.5;exitDx=0;exitDy=0;exitPerimeter=0;entryX=0.5;entryY=1;entryDx=0;entryDy=0;entryPerimeter=0;" edge="1" parent="9dSxk1FIh0uDA3eXWPNg-8" source="9dSxk1FIh0uDA3eXWPNg-25" target="9dSxk1FIh0uDA3eXWPNg-20">
          <mxGeometry width="50" height="50" relative="1" as="geometry">
            <mxPoint x="680" y="340" as="sourcePoint" />
            <mxPoint x="730" y="290" as="targetPoint" />
            <Array as="points">
              <mxPoint x="735" y="320" />
            </Array>
          </mxGeometry>
        </mxCell>
      </root>
    </mxGraphModel>
  </diagram>
</mxfile>
